<svg 
  viewBox="0 0 54 54" 
  fill="currentColor" 
  xmlns="http://www.w3.org/2000/svg"
>
  <path 
    d="M52.5672 35.2364L36.2047 27L52.5672 18.7636C53.9243 18.0805 54.4037 16.5083 53.6294 15.2793L51.3881 11.7206C50.614 10.4916 48.889 10.086 47.565 10.8217L31.6024 19.6929L32.0022 2.58546C32.0353 1.16659 30.7897 0 29.2414 0H24.7587C23.2104 0 21.9647 1.16659 21.9979 2.58546L22.3976 19.6929L6.43496 10.8218C5.11109 10.0861 3.38601 10.4917 2.6119 11.7207L0.370552 15.2794C-0.403564 16.5084 0.075771 18.0806 1.43289 18.7637L17.7953 27L1.43278 35.2364C0.0756561 35.9195 -0.403679 37.4917 0.370552 38.7207L2.6119 42.2794C3.38601 43.5084 5.11109 43.914 6.43496 43.1783L22.3976 34.3071L21.9978 51.4145C21.9647 52.8334 23.2104 54 24.7587 54H29.2415C30.7897 54 32.0354 52.8334 32.0023 51.4145L31.6024 34.3071L47.565 43.1782C48.8889 43.9139 50.614 43.5083 51.3881 42.2793L53.6294 38.7206C54.4036 37.4916 53.9243 35.9195 52.5672 35.2364Z " fill="#737373"/>
</svg>
