<svg width="344" height="87" viewBox="0 0 344 87" fill="none" xmlns="http://www.w3.org/2000/svg">
<path d="M107.952 25.872H133.588V31.488H114.452V41.212H131.248V46.516H114.452V63H107.952V25.872ZM150.268 63.728C148.119 63.728 146.195 63.3813 144.496 62.688C142.832 61.96 141.411 60.972 140.232 59.724C139.088 58.476 138.204 56.9853 137.58 55.252C136.991 53.5187 136.696 51.612 136.696 49.532C136.696 47.4867 136.991 45.5973 137.58 43.864C138.204 42.1307 139.088 40.64 140.232 39.392C141.411 38.144 142.832 37.1733 144.496 36.48C146.195 35.752 148.119 35.388 150.268 35.388C152.418 35.388 154.324 35.752 155.988 36.48C157.687 37.1733 159.108 38.144 160.252 39.392C161.431 40.64 162.315 42.1307 162.904 43.864C163.528 45.5973 163.84 47.4867 163.84 49.532C163.84 51.612 163.528 53.5187 162.904 55.252C162.315 56.9853 161.431 58.476 160.252 59.724C159.108 60.972 157.687 61.96 155.988 62.688C154.324 63.3813 152.418 63.728 150.268 63.728ZM150.268 59.048C151.586 59.048 152.73 58.7707 153.7 58.216C154.671 57.6613 155.468 56.9333 156.092 56.032C156.716 55.1307 157.167 54.1253 157.444 53.016C157.756 51.872 157.912 50.7107 157.912 49.532C157.912 48.388 157.756 47.244 157.444 46.1C157.167 44.956 156.716 43.9507 156.092 43.084C155.468 42.1827 154.671 41.4547 153.7 40.9C152.73 40.3453 151.586 40.068 150.268 40.068C148.951 40.068 147.807 40.3453 146.836 40.9C145.866 41.4547 145.068 42.1827 144.444 43.084C143.82 43.9507 143.352 44.956 143.04 46.1C142.763 47.244 142.624 48.388 142.624 49.532C142.624 50.7107 142.763 51.872 143.04 53.016C143.352 54.1253 143.82 55.1307 144.444 56.032C145.068 56.9333 145.866 57.6613 146.836 58.216C147.807 58.7707 148.951 59.048 150.268 59.048ZM168.768 36.116H174.332V41.316H174.436C174.61 40.588 174.939 39.8773 175.424 39.184C175.944 38.4907 176.551 37.8667 177.244 37.312C177.972 36.7227 178.77 36.2547 179.636 35.908C180.503 35.5613 181.387 35.388 182.288 35.388C182.982 35.388 183.45 35.4053 183.692 35.44C183.97 35.4747 184.247 35.5093 184.524 35.544V41.264C184.108 41.1947 183.675 41.1427 183.224 41.108C182.808 41.0387 182.392 41.004 181.976 41.004C180.971 41.004 180.018 41.212 179.116 41.628C178.25 42.0093 177.487 42.5987 176.828 43.396C176.17 44.1587 175.65 45.112 175.268 46.256C174.887 47.4 174.696 48.7173 174.696 50.208V63H168.768V36.116ZM187.05 36.116H192.666V39.86H192.822C193.272 39.2013 193.758 38.5947 194.278 38.04C194.798 37.4853 195.37 37.0173 195.994 36.636C196.652 36.2547 197.398 35.96 198.23 35.752C199.062 35.5093 200.015 35.388 201.09 35.388C202.719 35.388 204.227 35.752 205.614 36.48C207.035 37.208 208.04 38.3347 208.63 39.86C209.635 38.4733 210.796 37.3813 212.114 36.584C213.431 35.7867 215.078 35.388 217.054 35.388C219.896 35.388 222.098 36.0813 223.658 37.468C225.252 38.8547 226.05 41.1773 226.05 44.436V63H220.122V47.296C220.122 46.2213 220.087 45.2507 220.018 44.384C219.948 43.4827 219.74 42.72 219.394 42.096C219.082 41.4373 218.596 40.9347 217.938 40.588C217.279 40.2413 216.378 40.068 215.234 40.068C213.223 40.068 211.767 40.692 210.866 41.94C209.964 43.188 209.514 44.956 209.514 47.244V63H203.586V45.736C203.586 43.864 203.239 42.46 202.546 41.524C201.887 40.5533 200.656 40.068 198.854 40.068C198.091 40.068 197.346 40.224 196.618 40.536C195.924 40.848 195.3 41.2987 194.746 41.888C194.226 42.4773 193.792 43.2053 193.446 44.072C193.134 44.9387 192.978 45.9267 192.978 47.036V63H187.05V36.116ZM233.128 25.872H258.764V31.488H239.628V41.212H256.424V46.516H239.628V63H233.128V25.872ZM263.276 25.872H269.204V63H263.276V25.872ZM287.987 63.728C285.838 63.728 283.914 63.3813 282.215 62.688C280.551 61.96 279.13 60.972 277.951 59.724C276.807 58.476 275.923 56.9853 275.299 55.252C274.71 53.5187 274.415 51.612 274.415 49.532C274.415 47.4867 274.71 45.5973 275.299 43.864C275.923 42.1307 276.807 40.64 277.951 39.392C279.13 38.144 280.551 37.1733 282.215 36.48C283.914 35.752 285.838 35.388 287.987 35.388C290.136 35.388 292.043 35.752 293.707 36.48C295.406 37.1733 296.827 38.144 297.971 39.392C299.15 40.64 300.034 42.1307 300.623 43.864C301.247 45.5973 301.559 47.4867 301.559 49.532C301.559 51.612 301.247 53.5187 300.623 55.252C300.034 56.9853 299.15 58.476 297.971 59.724C296.827 60.972 295.406 61.96 293.707 62.688C292.043 63.3813 290.136 63.728 287.987 63.728ZM287.987 59.048C289.304 59.048 290.448 58.7707 291.419 58.216C292.39 57.6613 293.187 56.9333 293.811 56.032C294.435 55.1307 294.886 54.1253 295.163 53.016C295.475 51.872 295.631 50.7107 295.631 49.532C295.631 48.388 295.475 47.244 295.163 46.1C294.886 44.956 294.435 43.9507 293.811 43.084C293.187 42.1827 292.39 41.4547 291.419 40.9C290.448 40.3453 289.304 40.068 287.987 40.068C286.67 40.068 285.526 40.3453 284.555 40.9C283.584 41.4547 282.787 42.1827 282.163 43.084C281.539 43.9507 281.071 44.956 280.759 46.1C280.482 47.244 280.343 48.388 280.343 49.532C280.343 50.7107 280.482 51.872 280.759 53.016C281.071 54.1253 281.539 55.1307 282.163 56.032C282.787 56.9333 283.584 57.6613 284.555 58.216C285.526 58.7707 286.67 59.048 287.987 59.048ZM304.043 36.116H310.335L315.587 56.188H315.691L320.735 36.116H326.715L331.551 56.188H331.655L337.115 36.116H343.147L334.723 63H328.639L323.647 43.032H323.543L318.603 63H312.363L304.043 36.116Z" fill="#FAFAFA"/>
<rect width="94" height="87" rx="20" fill="#171717"/>
<path d="M67.0793 25.9476L67.5401 26.7768L67.0793 25.9476L52.6429 33.9706L53.0019 18.6088L52.0022 18.5855L53.0019 18.6088C53.0501 16.5457 51.2645 15 49.2414 15H44.7587C42.7357 15 40.9499 16.5457 40.9982 18.6088C40.9982 18.6088 40.9982 18.6089 40.9982 18.6089L41.3571 33.9706L26.9207 25.9478C26.9207 25.9477 26.9207 25.9477 26.9207 25.9477C25.1648 24.9719 22.842 25.479 21.7658 27.1878L21.7657 27.1878L19.5244 30.7464C19.5244 30.7464 19.5244 30.7464 19.5244 30.7464C18.41 32.5158 19.1434 34.7308 20.9833 35.657L35.5712 43L20.9832 50.3431C19.1433 51.2693 18.4098 53.4844 19.5244 55.2538L21.7657 58.8123L22.6119 58.2794L21.7658 58.8123C22.842 60.5211 25.1648 61.0282 26.9207 60.0524L41.3571 52.0294L40.9981 67.3912C40.9499 69.4543 42.7357 71 44.7587 71H49.2415C51.2645 71 53.0502 69.4543 53.002 67.3912L52.6429 52.0294L67.0793 60.0523C68.8352 61.0281 71.158 60.521 72.2342 58.8122L71.3881 58.2793L72.2343 58.8122L74.4756 55.2536C75.59 53.4843 74.8568 51.2693 73.0168 50.3431L58.4288 43L73.0168 35.6568C74.8567 34.7307 75.5902 32.5157 74.4756 30.7463C74.4756 30.7463 74.4756 30.7463 74.4756 30.7462L72.2343 27.1877L71.3881 27.7206L72.2342 27.1877C71.158 25.4789 68.8353 24.9718 67.0793 25.9476Z" stroke="#FAFAFA" stroke-width="2"/>
</svg>
