<svg viewBox="0 0 400 94" fill="none" xmlns="http://www.w3.org/2000/svg">
<path d="M108.864 25.304H140.416V32.216H116.864V44.184H137.536V50.712H116.864V71H108.864V25.304ZM160.946 71.896C158.3 71.896 155.932 71.4693 153.842 70.616C151.794 69.72 150.044 68.504 148.594 66.968C147.186 65.432 146.098 63.5973 145.33 61.464C144.604 59.3307 144.242 56.984 144.242 54.424C144.242 51.9067 144.604 49.5813 145.33 47.448C146.098 45.3147 147.186 43.48 148.594 41.944C150.044 40.408 151.794 39.2133 153.842 38.36C155.932 37.464 158.3 37.016 160.946 37.016C163.591 37.016 165.938 37.464 167.986 38.36C170.076 39.2133 171.826 40.408 173.234 41.944C174.684 43.48 175.772 45.3147 176.498 47.448C177.266 49.5813 177.65 51.9067 177.65 54.424C177.65 56.984 177.266 59.3307 176.498 61.464C175.772 63.5973 174.684 65.432 173.234 66.968C171.826 68.504 170.076 69.72 167.986 70.616C165.938 71.4693 163.591 71.896 160.946 71.896ZM160.946 66.136C162.567 66.136 163.975 65.7947 165.17 65.112C166.364 64.4293 167.346 63.5333 168.114 62.424C168.882 61.3147 169.436 60.0773 169.778 58.712C170.162 57.304 170.354 55.8747 170.354 54.424C170.354 53.016 170.162 51.608 169.778 50.2C169.436 48.792 168.882 47.5547 168.114 46.488C167.346 45.3787 166.364 44.4827 165.17 43.8C163.975 43.1173 162.567 42.776 160.946 42.776C159.324 42.776 157.916 43.1173 156.722 43.8C155.527 44.4827 154.546 45.3787 153.778 46.488C153.01 47.5547 152.434 48.792 152.05 50.2C151.708 51.608 151.538 53.016 151.538 54.424C151.538 55.8747 151.708 57.304 152.05 58.712C152.434 60.0773 153.01 61.3147 153.778 62.424C154.546 63.5333 155.527 64.4293 156.722 65.112C157.916 65.7947 159.324 66.136 160.946 66.136ZM183.715 37.912H190.563V44.312H190.691C190.904 43.416 191.31 42.5413 191.907 41.688C192.547 40.8347 193.294 40.0667 194.147 39.384C195.043 38.6587 196.024 38.0827 197.091 37.656C198.158 37.2293 199.246 37.016 200.355 37.016C201.208 37.016 201.784 37.0373 202.083 37.08C202.424 37.1227 202.766 37.1653 203.107 37.208V44.248C202.595 44.1627 202.062 44.0987 201.507 44.056C200.995 43.9707 200.483 43.928 199.971 43.928C198.734 43.928 197.56 44.184 196.451 44.696C195.384 45.1653 194.446 45.8907 193.635 46.872C192.824 47.8107 192.184 48.984 191.715 50.392C191.246 51.8 191.011 53.4213 191.011 55.256V71H183.715V37.912ZM206.215 37.912H213.127V42.52H213.319C213.874 41.7093 214.471 40.9627 215.111 40.28C215.751 39.5973 216.455 39.0213 217.223 38.552C218.034 38.0827 218.951 37.72 219.975 37.464C220.999 37.1653 222.172 37.016 223.495 37.016C225.5 37.016 227.356 37.464 229.063 38.36C230.812 39.256 232.05 40.6427 232.775 42.52C234.012 40.8133 235.442 39.4693 237.063 38.488C238.684 37.5067 240.711 37.016 243.143 37.016C246.642 37.016 249.351 37.8693 251.271 39.576C253.234 41.2827 254.215 44.1413 254.215 48.152V71H246.919V51.672C246.919 50.3493 246.876 49.1547 246.791 48.088C246.706 46.9787 246.45 46.04 246.023 45.272C245.639 44.4613 245.042 43.8427 244.231 43.416C243.42 42.9893 242.311 42.776 240.903 42.776C238.428 42.776 236.636 43.544 235.527 45.08C234.418 46.616 233.863 48.792 233.863 51.608V71H226.567V49.752C226.567 47.448 226.14 45.72 225.287 44.568C224.476 43.3733 222.962 42.776 220.743 42.776C219.804 42.776 218.887 42.968 217.991 43.352C217.138 43.736 216.37 44.2907 215.687 45.016C215.047 45.7413 214.514 46.6373 214.087 47.704C213.703 48.7707 213.511 49.9867 213.511 51.352V71H206.215V37.912ZM262.927 25.304H294.479V32.216H270.927V44.184H291.599V50.712H270.927V71H262.927V25.304ZM300.032 25.304H307.328V71H300.032V25.304ZM330.446 71.896C327.8 71.896 325.432 71.4693 323.342 70.616C321.294 69.72 319.544 68.504 318.094 66.968C316.686 65.432 315.598 63.5973 314.83 61.464C314.104 59.3307 313.742 56.984 313.742 54.424C313.742 51.9067 314.104 49.5813 314.83 47.448C315.598 45.3147 316.686 43.48 318.094 41.944C319.544 40.408 321.294 39.2133 323.342 38.36C325.432 37.464 327.8 37.016 330.446 37.016C333.091 37.016 335.438 37.464 337.486 38.36C339.576 39.2133 341.326 40.408 342.734 41.944C344.184 43.48 345.272 45.3147 345.998 47.448C346.766 49.5813 347.15 51.9067 347.15 54.424C347.15 56.984 346.766 59.3307 345.998 61.464C345.272 63.5973 344.184 65.432 342.734 66.968C341.326 68.504 339.576 69.72 337.486 70.616C335.438 71.4693 333.091 71.896 330.446 71.896ZM330.446 66.136C332.067 66.136 333.475 65.7947 334.67 65.112C335.864 64.4293 336.846 63.5333 337.614 62.424C338.382 61.3147 338.936 60.0773 339.278 58.712C339.662 57.304 339.854 55.8747 339.854 54.424C339.854 53.016 339.662 51.608 339.278 50.2C338.936 48.792 338.382 47.5547 337.614 46.488C336.846 45.3787 335.864 44.4827 334.67 43.8C333.475 43.1173 332.067 42.776 330.446 42.776C328.824 42.776 327.416 43.1173 326.222 43.8C325.027 44.4827 324.046 45.3787 323.278 46.488C322.51 47.5547 321.934 48.792 321.55 50.2C321.208 51.608 321.038 53.016 321.038 54.424C321.038 55.8747 321.208 57.304 321.55 58.712C321.934 60.0773 322.51 61.3147 323.278 62.424C324.046 63.5333 325.027 64.4293 326.222 65.112C327.416 65.7947 328.824 66.136 330.446 66.136ZM350.207 37.912H357.951L364.415 62.616H364.543L370.751 37.912H378.111L384.063 62.616H384.191L390.911 37.912H398.335L387.967 71H380.479L374.335 46.424H374.207L368.127 71H360.447L350.207 37.912Z" fill="#171717"/>
<rect width="94" height="94" rx="10" fill="#171717"/>
<path d="M67.0793 29.9476L67.5401 30.7768L67.0793 29.9476L52.6429 37.9706L53.0019 22.6088L52.0022 22.5855L53.0019 22.6088C53.0501 20.5457 51.2645 19 49.2414 19H44.7587C42.7357 19 40.9499 20.5457 40.9982 22.6088C40.9982 22.6088 40.9982 22.6089 40.9982 22.6089L41.3571 37.9706L26.9207 29.9478C26.9207 29.9477 26.9207 29.9477 26.9207 29.9477C25.1648 28.9719 22.842 29.479 21.7658 31.1878L21.7657 31.1878L19.5244 34.7464C19.5244 34.7464 19.5244 34.7464 19.5244 34.7464C18.41 36.5158 19.1434 38.7308 20.9833 39.657L35.5712 47L20.9832 54.3431C19.1433 55.2693 18.4098 57.4844 19.5244 59.2538L21.7657 62.8123L22.6119 62.2794L21.7658 62.8123C22.842 64.5211 25.1648 65.0282 26.9207 64.0524L41.3571 56.0294L40.9981 71.3912C40.9499 73.4543 42.7357 75 44.7587 75H49.2415C51.2645 75 53.0502 73.4543 53.002 71.3912L52.6429 56.0294L67.0793 64.0523C68.8352 65.0281 71.158 64.521 72.2342 62.8122L71.3881 62.2793L72.2343 62.8122L74.4756 59.2536C75.59 57.4843 74.8568 55.2693 73.0168 54.3431L58.4288 47L73.0168 39.6568C74.8567 38.7307 75.5902 36.5157 74.4756 34.7463C74.4756 34.7463 74.4756 34.7463 74.4756 34.7462L72.2343 31.1877L71.3881 31.7206L72.2342 31.1877C71.158 29.4789 68.8353 28.9718 67.0793 29.9476Z" stroke="#FAFAFA" stroke-width="2"/>
</svg>
